<svg width="100" height="44" viewBox="0 0 100 44" fill="none" xmlns="http://www.w3.org/2000/svg">
<path fill-rule="evenodd" clip-rule="evenodd" d="M18.4989 3.29433C20.3183 1.47492 23.2681 1.47492 25.0876 3.29433L40.2921 18.4989C42.1115 20.3183 42.1115 23.2682 40.2921 25.0876L25.0876 40.2921C23.2681 42.1115 20.3183 42.1115 18.4989 40.2921L3.29432 25.0876C1.47492 23.2682 1.47491 20.3183 3.29432 18.4989L18.4989 3.29433ZM23.5671 4.81478C22.5874 3.8351 20.999 3.8351 20.0194 4.81478L4.81478 20.0194C3.8351 20.999 3.8351 22.5874 4.81478 23.5671L20.0194 38.7717C20.999 39.7514 22.5874 39.7514 23.5671 38.7717L38.7717 23.5671C39.7514 22.5874 39.7514 20.999 38.7717 20.0194L23.5671 4.81478Z" fill="url(#paint0_linear)"/>
<path d="M29.9237 15.4626C30.8567 16.3956 30.8567 17.9083 29.9237 18.8414L23.1661 25.5989C22.2331 26.532 20.7203 26.532 19.7873 25.5989L13.0297 18.8414C12.0967 17.9083 12.0967 16.3956 13.0297 15.4626L19.7873 8.70496C20.7203 7.77194 22.2331 7.77194 23.1661 8.70496L29.9237 15.4626Z" fill="url(#paint1_linear)"/>
<path d="M13.027 28.1598C12.0939 27.2267 12.0939 25.714 13.027 24.781L19.7846 18.0234C20.7176 17.0903 22.2303 17.0903 23.1634 18.0234L29.9209 24.781C30.854 25.714 30.854 27.2267 29.9209 28.1598L23.1634 34.9174C22.2303 35.8504 20.7176 35.8504 19.7846 34.9174L13.027 28.1598Z" fill="url(#paint2_linear)"/>
<path d="M35.5446 18.7129L35.6593 20.1655C36.2964 19.6049 36.9208 19.1844 37.5324 18.904C38.1441 18.6237 38.7748 18.4836 39.4247 18.4836C40.7116 18.4836 41.5016 19.0251 41.7947 20.1082C43.0307 19.0251 44.2603 18.4836 45.4836 18.4836C46.2991 18.4836 46.9171 18.7002 47.3376 19.1334C47.7708 19.5666 47.9874 20.2038 47.9874 21.0447V28.0402H46.1526V21.5799C46.1526 21.0447 46.0443 20.6561 45.8276 20.414C45.6238 20.1592 45.2733 20.0317 44.7764 20.0317C44.3304 20.0317 43.9036 20.14 43.4958 20.3567C43.1008 20.5605 42.572 20.8982 41.9094 21.3697V28.0402H40.1319V21.5799C40.1319 21.0193 40.0172 20.6243 39.7878 20.3949C39.5585 20.1528 39.2144 20.0317 38.7557 20.0317C38.3097 20.0317 37.8828 20.1337 37.4751 20.3375C37.0801 20.5414 36.5449 20.8791 35.8696 21.3506V28.0402H34.0347V18.7129H35.5446Z" fill="#454545"/>
<path d="M51.0638 14.7182C51.4333 14.7182 51.6181 14.903 51.6181 15.2725V16.362C51.6181 16.7315 51.4333 16.9163 51.0638 16.9163H50.2037C49.8342 16.9163 49.6494 16.7315 49.6494 16.362V15.2725C49.6494 14.903 49.8342 14.7182 50.2037 14.7182H51.0638ZM51.5416 18.7129V28.0402H49.7259V18.7129H51.5416Z" fill="#454545"/>
<path d="M54.8847 18.7129L55.0376 20.1655C55.7257 19.6304 56.4137 19.2162 57.1018 18.9232C57.8026 18.6301 58.4971 18.4836 59.1852 18.4836C60.8799 18.4836 61.7273 19.3373 61.7273 21.0447V28.0402H59.8733V21.5799C59.8733 20.9938 59.7713 20.5924 59.5674 20.3758C59.3763 20.1464 59.0578 20.0317 58.6118 20.0317C58.0893 20.0317 57.5669 20.1528 57.0445 20.3949C56.5221 20.6243 55.9041 20.9492 55.1905 21.3697V28.0402H53.3556V18.7129H54.8847Z" fill="#454545"/>
<path d="M64.8038 14.7182C65.1733 14.7182 65.358 14.903 65.358 15.2725V16.362C65.358 16.7315 65.1733 16.9163 64.8038 16.9163H63.9437C63.5741 16.9163 63.3894 16.7315 63.3894 16.362V15.2725C63.3894 14.903 63.5741 14.7182 63.9437 14.7182H64.8038ZM65.2816 18.7129V28.0402H63.4658V18.7129H65.2816Z" fill="#454545"/>
<path d="M74.5737 21.1594V22.8318H67.3106V21.1594H74.5737Z" fill="#454545"/>
<path d="M78.3147 14.852V28.0402H76.4034V14.852H78.3147Z" fill="#454545"/>
<path d="M90.1574 14.852V16.4958H85.9524V28.0402H84.0411V16.4958H79.8553V14.852H90.1574Z" fill="#454545"/>
<path d="M95.5084 14.6227C96.1455 14.6227 96.8017 14.6545 97.477 14.7182C98.1651 14.7692 98.8468 14.8711 99.5222 15.024L99.3884 16.3811C98.8277 16.3556 98.2097 16.3365 97.5344 16.3237C96.859 16.311 96.2028 16.3046 95.5657 16.3046C94.9668 16.3046 94.4826 16.3365 94.1131 16.4002C93.7436 16.4512 93.4696 16.6104 93.2912 16.878C93.1256 17.1329 93.0427 17.5597 93.0427 18.1586C93.0427 18.834 93.1702 19.3054 93.425 19.573C93.6799 19.8406 94.094 20.0508 94.6674 20.2038L97.3241 20.9109C98.3435 21.1785 99.0443 21.6118 99.4266 22.2107C99.8089 22.8095 100 23.6187 100 24.6381C100 25.6447 99.8407 26.4092 99.5222 26.9317C99.2164 27.4541 98.7322 27.8109 98.0696 28.002C97.407 28.1804 96.5469 28.2696 95.4892 28.2696C95.056 28.2696 94.4826 28.2505 93.7691 28.2123C93.0555 28.174 92.2336 28.0657 91.3034 27.8873L91.4372 26.492C92.189 26.5175 92.8006 26.5366 93.2721 26.5494C93.7436 26.5621 94.1513 26.5749 94.4954 26.5876C94.8394 26.5876 95.1898 26.5876 95.5466 26.5876C96.1837 26.5876 96.687 26.543 97.0565 26.4538C97.4261 26.3519 97.6873 26.1608 97.8402 25.8804C97.9931 25.6001 98.0696 25.1796 98.0696 24.6189C98.0696 23.9054 97.9421 23.4212 97.6873 23.1663C97.4324 22.9115 97.0311 22.714 96.4831 22.5738L93.7499 21.8284C92.7943 21.5735 92.1189 21.1467 91.7239 20.5478C91.3289 19.9362 91.1314 19.1334 91.1314 18.1395C91.1314 17.1074 91.2843 16.3429 91.5901 15.8459C91.8959 15.349 92.3738 15.024 93.0236 14.8711C93.6735 14.7055 94.5017 14.6227 95.5084 14.6227Z" fill="#454545"/>
<defs>
<linearGradient id="paint0_linear" x1="66.1474" y1="23.8592" x2="1.99824" y2="24.0981" gradientUnits="userSpaceOnUse">
<stop offset="0.514338" stop-color="white"/>
<stop offset="1" stop-color="#454545"/>
</linearGradient>
<linearGradient id="paint1_linear" x1="21.5547" y1="27.3663" x2="21.8588" y2="-5.57697" gradientUnits="userSpaceOnUse">
<stop stop-color="#AE4BBE"/>
<stop offset="1" stop-color="#DCDCDC"/>
</linearGradient>
<linearGradient id="paint2_linear" x1="21.474" y1="36.6067" x2="22.3862" y2="7.92077" gradientUnits="userSpaceOnUse">
<stop stop-color="#0DAEE1"/>
<stop offset="1" stop-color="white"/>
</linearGradient>
</defs>
</svg>
